<svg width="347" height="38" viewBox="0 0 347 38" fill="none" xmlns="http://www.w3.org/2000/svg">
<path d="M15.57 3.29V7.21H5.175V13.825H13.505V17.605H5.175V28H0.24V3.29H15.57ZM37.1371 17.57C37.1371 18.06 37.0788 18.62 36.9621 19.25H22.7521C22.8221 20.9767 23.2888 22.2483 24.1521 23.065C25.0154 23.8817 26.0888 24.29 27.3721 24.29C28.5154 24.29 29.4604 24.01 30.2071 23.45C30.9771 22.89 31.4671 22.1317 31.6771 21.175H36.8921C36.6354 22.5283 36.0871 23.7417 35.2471 24.815C34.4071 25.8883 33.3221 26.7283 31.9921 27.335C30.6854 27.9417 29.2271 28.245 27.6171 28.245C25.7271 28.245 24.0471 27.8483 22.5771 27.055C21.1071 26.2383 19.9638 25.0833 19.1471 23.59C18.3304 22.0967 17.9221 20.335 17.9221 18.305C17.9221 16.275 18.3304 14.5133 19.1471 13.02C19.9638 11.5033 21.1071 10.3483 22.5771 9.555C24.0471 8.76167 25.7271 8.365 27.6171 8.365C29.5304 8.365 31.1988 8.76167 32.6221 9.555C34.0688 10.3483 35.1771 11.445 35.9471 12.845C36.7404 14.2217 37.1371 15.7967 37.1371 17.57ZM32.1671 17.08C32.2371 15.4933 31.8171 14.2917 30.9071 13.475C30.0204 12.6583 28.9238 12.25 27.6171 12.25C26.2871 12.25 25.1671 12.6583 24.2571 13.475C23.3471 14.2917 22.8454 15.4933 22.7521 17.08H32.1671ZM48.2354 8.365C49.8687 8.365 51.2687 8.75 52.4354 9.52C53.6021 10.29 54.4304 11.3283 54.9204 12.635V8.61H59.8204V28H54.9204V23.94C54.4304 25.2467 53.6021 26.2967 52.4354 27.09C51.2687 27.86 49.8687 28.245 48.2354 28.245C46.6021 28.245 45.1321 27.8483 43.8254 27.055C42.5187 26.2617 41.4921 25.1183 40.7454 23.625C40.0221 22.1083 39.6604 20.335 39.6604 18.305C39.6604 16.275 40.0221 14.5133 40.7454 13.02C41.4921 11.5033 42.5187 10.3483 43.8254 9.555C45.1321 8.76167 46.6021 8.365 48.2354 8.365ZM49.7754 12.67C48.2354 12.67 46.9987 13.1717 46.0654 14.175C45.1321 15.1783 44.6654 16.555 44.6654 18.305C44.6654 20.055 45.1321 21.4317 46.0654 22.435C46.9987 23.415 48.2354 23.905 49.7754 23.905C51.2687 23.905 52.4937 23.4033 53.4504 22.4C54.4304 21.3733 54.9204 20.0083 54.9204 18.305C54.9204 16.5783 54.4304 15.2133 53.4504 14.21C52.4937 13.1833 51.2687 12.67 49.7754 12.67ZM74.6527 23.765V28H72.0627C69.8927 28 68.2244 27.475 67.0577 26.425C65.9144 25.375 65.3427 23.625 65.3427 21.175V12.775H62.6477V8.61H65.3427V3.815H70.2777V8.61H74.6177V12.775H70.2777V21.245C70.2777 22.1783 70.4644 22.8317 70.8377 23.205C71.2111 23.5783 71.8411 23.765 72.7277 23.765H74.6527ZM96.7539 8.61V28H91.8189V24.08C91.3055 25.3867 90.4539 26.4133 89.2639 27.16C88.0972 27.8833 86.7439 28.245 85.2039 28.245C82.9639 28.245 81.1789 27.51 79.8489 26.04C78.5189 24.57 77.8539 22.5167 77.8539 19.88V8.61H82.7539V19.32C82.7539 20.86 83.1505 22.0617 83.9439 22.925C84.7372 23.765 85.8105 24.185 87.1639 24.185C88.5872 24.185 89.7189 23.73 90.5589 22.82C91.3989 21.91 91.8189 20.6033 91.8189 18.9V8.61H96.7539ZM106.176 12.32C106.899 11.0833 107.856 10.115 109.046 9.415C110.236 8.69167 111.566 8.33 113.036 8.33V13.615H111.601C107.984 13.615 106.176 15.295 106.176 18.655V28H101.241V8.61H106.176V12.32ZM134.002 17.57C134.002 18.06 133.944 18.62 133.827 19.25H119.617C119.687 20.9767 120.154 22.2483 121.017 23.065C121.881 23.8817 122.954 24.29 124.237 24.29C125.381 24.29 126.326 24.01 127.072 23.45C127.842 22.89 128.332 22.1317 128.542 21.175H133.757C133.501 22.5283 132.952 23.7417 132.112 24.815C131.272 25.8883 130.187 26.7283 128.857 27.335C127.551 27.9417 126.092 28.245 124.482 28.245C122.592 28.245 120.912 27.8483 119.442 27.055C117.972 26.2383 116.829 25.0833 116.012 23.59C115.196 22.0967 114.787 20.335 114.787 18.305C114.787 16.275 115.196 14.5133 116.012 13.02C116.829 11.5033 117.972 10.3483 119.442 9.555C120.912 8.76167 122.592 8.365 124.482 8.365C126.396 8.365 128.064 8.76167 129.487 9.555C130.934 10.3483 132.042 11.445 132.812 12.845C133.606 14.2217 134.002 15.7967 134.002 17.57ZM129.032 17.08C129.102 15.4933 128.682 14.2917 127.772 13.475C126.886 12.6583 125.789 12.25 124.482 12.25C123.152 12.25 122.032 12.6583 121.122 13.475C120.212 14.2917 119.711 15.4933 119.617 17.08H129.032ZM145.101 8.365C146.734 8.365 148.122 8.75 149.266 9.52C150.432 10.29 151.272 11.3283 151.786 12.635V2.1H156.686V28H151.786V23.94C151.272 25.2467 150.432 26.2967 149.266 27.09C148.122 27.86 146.734 28.245 145.101 28.245C143.467 28.245 141.997 27.8483 140.691 27.055C139.384 26.2617 138.357 25.1183 137.611 23.625C136.887 22.1083 136.526 20.335 136.526 18.305C136.526 16.275 136.887 14.5133 137.611 13.02C138.357 11.5033 139.384 10.3483 140.691 9.555C141.997 8.76167 143.467 8.365 145.101 8.365ZM146.641 12.67C145.101 12.67 143.864 13.1717 142.931 14.175C141.997 15.1783 141.531 16.555 141.531 18.305C141.531 20.055 141.997 21.4317 142.931 22.435C143.864 23.415 145.101 23.905 146.641 23.905C148.134 23.905 149.359 23.4033 150.316 22.4C151.296 21.3733 151.786 20.0083 151.786 18.305C151.786 16.5783 151.296 15.2133 150.316 14.21C149.359 13.1833 148.134 12.67 146.641 12.67ZM173.715 18.83V28H168.78V3.29H177.775C180.692 3.29 182.885 3.99 184.355 5.39C185.848 6.79 186.595 8.69167 186.595 11.095C186.595 13.4517 185.825 15.33 184.285 16.73C182.768 18.13 180.598 18.83 177.775 18.83H173.715ZM177.25 14.875C180.143 14.875 181.59 13.615 181.59 11.095C181.59 9.85833 181.252 8.91333 180.575 8.26C179.898 7.60667 178.79 7.28 177.25 7.28H173.715V14.875H177.25ZM194.736 12.32C195.459 11.0833 196.416 10.115 197.606 9.415C198.796 8.69167 200.126 8.33 201.596 8.33V13.615H200.161C196.544 13.615 194.736 15.295 194.736 18.655V28H189.801V8.61H194.736V12.32ZM213.287 8.365C215.177 8.365 216.869 8.76167 218.362 9.555C219.879 10.3483 221.069 11.5033 221.932 13.02C222.795 14.5133 223.227 16.275 223.227 18.305C223.227 20.335 222.795 22.0967 221.932 23.59C221.069 25.0833 219.879 26.2383 218.362 27.055C216.869 27.8483 215.177 28.245 213.287 28.245C211.397 28.245 209.694 27.8483 208.177 27.055C206.684 26.2383 205.505 25.0833 204.642 23.59C203.779 22.0967 203.347 20.335 203.347 18.305C203.347 16.275 203.779 14.5133 204.642 13.02C205.505 11.5033 206.684 10.3483 208.177 9.555C209.694 8.76167 211.397 8.365 213.287 8.365ZM213.287 12.635C211.91 12.635 210.744 13.125 209.787 14.105C208.83 15.0617 208.352 16.4617 208.352 18.305C208.352 20.1483 208.83 21.56 209.787 22.54C210.744 23.4967 211.91 23.975 213.287 23.975C214.664 23.975 215.83 23.4967 216.787 22.54C217.744 21.56 218.222 20.1483 218.222 18.305C218.222 16.4617 217.744 15.0617 216.787 14.105C215.83 13.125 214.664 12.635 213.287 12.635ZM238.3 8.365C239.933 8.365 241.403 8.76167 242.71 9.555C244.016 10.3483 245.031 11.5033 245.755 13.02C246.501 14.5133 246.875 16.275 246.875 18.305C246.875 20.335 246.501 22.1083 245.755 23.625C245.031 25.1183 244.016 26.2617 242.71 27.055C241.403 27.8483 239.933 28.245 238.3 28.245C236.666 28.245 235.266 27.86 234.1 27.09C232.956 26.2967 232.14 25.2467 231.65 23.94V37.24H226.715V8.61H231.65V12.635C232.14 11.3283 232.956 10.29 234.1 9.52C235.266 8.75 236.666 8.365 238.3 8.365ZM236.76 12.67C235.266 12.67 234.03 13.1833 233.05 14.21C232.093 15.2133 231.615 16.5783 231.615 18.305C231.615 20.0083 232.093 21.3733 233.05 22.4C234.03 23.4033 235.266 23.905 236.76 23.905C238.3 23.905 239.536 23.415 240.47 22.435C241.403 21.4317 241.87 20.055 241.87 18.305C241.87 16.555 241.403 15.1783 240.47 14.175C239.536 13.1717 238.3 12.67 236.76 12.67ZM268.602 17.57C268.602 18.06 268.544 18.62 268.427 19.25H254.217C254.287 20.9767 254.754 22.2483 255.617 23.065C256.48 23.8817 257.554 24.29 258.837 24.29C259.98 24.29 260.925 24.01 261.672 23.45C262.442 22.89 262.932 22.1317 263.142 21.175H268.357C268.1 22.5283 267.552 23.7417 266.712 24.815C265.872 25.8883 264.787 26.7283 263.457 27.335C262.15 27.9417 260.692 28.245 259.082 28.245C257.192 28.245 255.512 27.8483 254.042 27.055C252.572 26.2383 251.429 25.0833 250.612 23.59C249.795 22.0967 249.387 20.335 249.387 18.305C249.387 16.275 249.795 14.5133 250.612 13.02C251.429 11.5033 252.572 10.3483 254.042 9.555C255.512 8.76167 257.192 8.365 259.082 8.365C260.995 8.365 262.664 8.76167 264.087 9.555C265.534 10.3483 266.642 11.445 267.412 12.845C268.205 14.2217 268.602 15.7967 268.602 17.57ZM263.632 17.08C263.702 15.4933 263.282 14.2917 262.372 13.475C261.485 12.6583 260.389 12.25 259.082 12.25C257.752 12.25 256.632 12.6583 255.722 13.475C254.812 14.2917 254.31 15.4933 254.217 17.08H263.632ZM277.04 12.32C277.764 11.0833 278.72 10.115 279.91 9.415C281.1 8.69167 282.43 8.33 283.9 8.33V13.615H282.465C278.849 13.615 277.04 15.295 277.04 18.655V28H272.105V8.61H277.04V12.32ZM296.992 23.765V28H294.402C292.232 28 290.563 27.475 289.397 26.425C288.253 25.375 287.682 23.625 287.682 21.175V12.775H284.987V8.61H287.682V3.815H292.617V8.61H296.957V12.775H292.617V21.245C292.617 22.1783 292.803 22.8317 293.177 23.205C293.55 23.5783 294.18 23.765 295.067 23.765H296.992ZM299.983 3.045C299.983 2.25167 300.263 1.61 300.823 1.12C301.383 0.606666 302.118 0.349999 303.028 0.349999C303.938 0.349999 304.673 0.606666 305.233 1.12C305.793 1.61 306.073 2.25167 306.073 3.045C306.073 3.815 305.793 4.45667 305.233 4.97C304.673 5.46 303.938 5.705 303.028 5.705C302.118 5.705 301.383 5.46 300.823 4.97C300.263 4.45667 299.983 3.815 299.983 3.045ZM305.478 8.61V28H300.543V8.61H305.478ZM328.177 17.57C328.177 18.06 328.119 18.62 328.002 19.25H313.792C313.862 20.9767 314.329 22.2483 315.192 23.065C316.055 23.8817 317.129 24.29 318.412 24.29C319.555 24.29 320.5 24.01 321.247 23.45C322.017 22.89 322.507 22.1317 322.717 21.175H327.932C327.675 22.5283 327.127 23.7417 326.287 24.815C325.447 25.8883 324.362 26.7283 323.032 27.335C321.725 27.9417 320.267 28.245 318.657 28.245C316.767 28.245 315.087 27.8483 313.617 27.055C312.147 26.2383 311.004 25.0833 310.187 23.59C309.37 22.0967 308.962 20.335 308.962 18.305C308.962 16.275 309.37 14.5133 310.187 13.02C311.004 11.5033 312.147 10.3483 313.617 9.555C315.087 8.76167 316.767 8.365 318.657 8.365C320.57 8.365 322.239 8.76167 323.662 9.555C325.109 10.3483 326.217 11.445 326.987 12.845C327.78 14.2217 328.177 15.7967 328.177 17.57ZM323.207 17.08C323.277 15.4933 322.857 14.2917 321.947 13.475C321.06 12.6583 319.964 12.25 318.657 12.25C317.327 12.25 316.207 12.6583 315.297 13.475C314.387 14.2917 313.885 15.4933 313.792 17.08H323.207ZM338.365 8.365C340.722 8.365 342.612 8.96 344.035 10.15C345.459 11.34 346.345 12.9267 346.695 14.91H342.075C341.889 13.9767 341.469 13.23 340.815 12.67C340.162 12.11 339.31 11.83 338.26 11.83C337.42 11.83 336.767 12.0283 336.3 12.425C335.834 12.8217 335.6 13.3583 335.6 14.035C335.6 14.5717 335.787 15.0033 336.16 15.33C336.534 15.6567 337 15.9133 337.56 16.1C338.12 16.2867 338.925 16.5083 339.975 16.765C341.445 17.0917 342.635 17.4417 343.545 17.815C344.479 18.165 345.272 18.7367 345.925 19.53C346.602 20.3 346.94 21.35 346.94 22.68C346.94 24.3367 346.287 25.6783 344.98 26.705C343.697 27.7317 341.959 28.245 339.765 28.245C337.245 28.245 335.227 27.685 333.71 26.565C332.194 25.4217 331.272 23.8 330.945 21.7H335.67C335.787 22.6567 336.207 23.415 336.93 23.975C337.654 24.5117 338.599 24.78 339.765 24.78C340.605 24.78 341.247 24.5817 341.69 24.185C342.134 23.765 342.355 23.2283 342.355 22.575C342.355 22.015 342.157 21.56 341.76 21.21C341.387 20.86 340.909 20.5917 340.325 20.405C339.765 20.2183 338.96 19.9967 337.91 19.74C336.464 19.4133 335.285 19.0867 334.375 18.76C333.489 18.41 332.719 17.8617 332.065 17.115C331.435 16.3683 331.12 15.3417 331.12 14.035C331.12 12.355 331.762 10.99 333.045 9.94C334.329 8.89 336.102 8.365 338.365 8.365Z" fill="#000339"/>
</svg>
